<?xml version="1.0" encoding="UTF-8"?>
<svg xmlns="http://www.w3.org/2000/svg" viewBox="0 0 32 32" width="32" height="32">
  <!-- Background circle -->
  <circle cx="16" cy="16" r="16" fill="#0F2740"/>
  <!-- Robot head -->
  <rect x="9" y="9" width="14" height="11" rx="3" fill="#FFFFFF"/>
  <!-- Brain squiggle -->
  <path d="M12 10.8c.7-1.3 3.2-1.3 3.8 0c.4-.8 2-.8 2.4 0c.6-1 2.4-.9 2.8.2" fill="none" stroke="#0F2740" stroke-width="1.5" stroke-linecap="round"/>
  <!-- Eyes -->
  <circle cx="13" cy="14" r="1.1" fill="#0F2740"/>
  <circle cx="19" cy="14" r="1.1" fill="#0F2740"/>
  <!-- Mouth -->
  <rect x="14" y="17" width="4" height="1.2" rx="0.6" fill="#0F2740"/>
  <!-- Code document -->
  <rect x="18.8" y="13.2" width="8.2" height="10.2" rx="1.5" fill="#FFFFFF"/>
  <path d="M21.2 16.2l-1.5 1.5l1.5 1.5M24.6 16.2l1.5 1.5l-1.5 1.5" fill="none" stroke="#0F2740" stroke-width="1.4" stroke-linecap="round" stroke-linejoin="round"/>
  <rect x="20.5" y="21" width="5.7" height="1.2" rx="0.6" fill="#0F2740"/>
  <!-- Chat bubble with check -->
  <path d="M6.5 18.8a3.2 3.2 0 0 1 3.2-3.2h4.1a3.2 3.2 0 0 1 3.2 3.2a3.2 3.2 0 0 1-3.2 3.2h-1.2l-2.2 1.7v-1.7H9.7a3.2 3.2 0 0 1-3.2-3.2z" fill="#FFFFFF"/>
  <path d="M9.2 19.1l1.2 1.2l2.3-2.3" fill="none" stroke="#0F2740" stroke-width="1.4" stroke-linecap="round" stroke-linejoin="round"/>
</svg>
